<svg width="249" height="329" viewBox="0 0 249 329" fill="none" xmlns="http://www.w3.org/2000/svg">
<path d="M85.4563 82.7686H120.152V117.591H85.4563V82.7686Z" fill="#1FB100"/>
<path d="M43.4607 82.0923H78.1587V116.912H43.4607V82.0923Z" fill="#1FB100"/>
<path d="M170.891 0H205.589V34.8195H170.891V0Z" fill="#1FB100"/>
<path d="M85.4563 40.2661H120.152V75.0857H85.4563V40.2661Z" fill="#1FB100"/>
<path d="M128.898 40.2661H163.593V75.0857H128.898V40.2661Z" fill="#1FB100"/>
<path d="M128.898 0H163.593V34.8195H128.898V0Z" fill="#1FB100"/>
<path d="M171.62 251.773H206.318V286.595H171.62V251.773Z" fill="#1FB100"/>
<path d="M171.62 294.178H206.318V328.997H171.62V294.178Z" fill="#1FB100"/>
<path d="M214.304 294.178H249V328.997H214.304V294.178Z" fill="#1FB100"/>
<path d="M85.4563 166.228H120.152V201.047H85.4563V166.228Z" fill="#1FB100"/>
<path d="M85.4563 209.407H120.152V244.229H85.4563V209.407Z" fill="#1FB100"/>
<path d="M43.4607 165.938H78.1587V200.758H43.4607V165.938Z" fill="#1FB100"/>
<path d="M43.4607 123.628H78.1587V158.448H43.4607V123.628Z" fill="#1FB100"/>
<path d="M0 123.628H34.6981V158.448H0V123.628Z" fill="#1FB100"/>
<path d="M128.898 209.117H163.593V243.937H128.898V209.117Z" fill="#1FB100"/>
<path d="M128.898 251.773H163.593V286.595H128.898V251.773Z" fill="#1FB100"/>
</svg>
